<svg width="136" height="34" viewBox="0 0 136 34" fill="none" xmlns="http://www.w3.org/2000/svg">
<path d="M97.7393 14.9412V17.9768H95.7887V19.9676H97.7393V26.7317C97.7393 29.0413 98.8104 29.9652 101.505 29.9652C101.979 29.9652 102.43 29.9102 102.824 29.8442V27.8755C102.486 27.9085 102.272 27.9305 101.9 27.9305C100.693 27.9305 100.163 27.3806 100.163 26.1267V19.9676H102.824V17.9768H100.163V14.9412H97.7393Z" fill="#0E0E0E"/>
<path d="M109.689 30.1302C113.275 30.1302 115.473 27.7875 115.473 23.905C115.473 20.0445 113.263 17.6909 109.689 17.6909C106.104 17.6909 103.894 20.0445 103.894 23.905C103.894 27.7875 106.092 30.1302 109.689 30.1302ZM109.689 28.0295C107.581 28.0295 106.397 26.5227 106.397 23.905C106.397 21.3094 107.581 19.7916 109.689 19.7916C111.786 19.7916 112.982 21.3094 112.982 23.905C112.982 26.5117 111.786 28.0295 109.689 28.0295Z" fill="#0E0E0E"/>
<path d="M117.355 29.8992H119.779V22.8272C119.779 21.1444 121.075 20.0115 122.913 20.0115C123.342 20.0115 124.063 20.0885 124.266 20.1545V17.8228C124.007 17.7568 123.545 17.7239 123.184 17.7239C121.583 17.7239 120.218 18.5817 119.869 19.7586H119.689V17.9218H117.355V29.8992Z" fill="#0E0E0E"/>
<path d="M130.285 19.7036C132.078 19.7036 133.251 20.9244 133.307 22.8052H127.106C127.241 20.9354 128.493 19.7036 130.285 19.7036ZM133.296 26.6657C132.845 27.6005 131.841 28.1175 130.376 28.1175C128.436 28.1175 127.185 26.7866 127.106 24.6859V24.5539H135.776V23.7291C135.776 19.9676 133.713 17.6909 130.297 17.6909C126.835 17.6909 124.637 20.1215 124.637 23.949C124.637 27.7765 126.79 30.1302 130.308 30.1302C133.116 30.1302 135.077 28.8104 135.63 26.6657H133.296Z" fill="#0E0E0E"/>
<path d="M81.8419 25.4762C82.0289 28.4173 84.5415 30.2982 88.2811 30.2982C92.2779 30.2982 94.7788 28.3261 94.7788 25.1798C94.7788 22.706 93.3531 21.3381 89.8939 20.5515L88.0357 20.1069C85.8387 19.6053 84.9505 18.9328 84.9505 17.7586C84.9505 16.2766 86.3295 15.3077 88.398 15.3077C90.3613 15.3077 91.717 16.2538 91.9624 17.77H94.51C94.3581 14.9999 91.8572 13.0505 88.4331 13.0505C84.7518 13.0505 82.2977 14.9999 82.2977 17.9296C82.2977 20.3463 83.6884 21.7827 86.7385 22.4781L88.9122 22.991C91.1443 23.504 92.126 24.2564 92.126 25.5104C92.126 26.9695 90.5834 28.0297 88.4798 28.0297C86.2243 28.0297 84.6583 27.0379 84.4363 25.4762H81.8419Z" fill="#0E0E0E"/>
<path d="M56.73 17.7239C55.0612 17.7239 53.618 18.5377 52.8738 19.9016H52.6934V17.9218H50.3594V33.8807H52.7836V28.0845H52.9753C53.618 29.3493 55.0048 30.0972 56.7525 30.0972C59.8532 30.0972 61.8264 27.7105 61.8264 23.905C61.8264 20.0995 59.8532 17.7239 56.73 17.7239ZM56.0422 27.9745C54.0126 27.9745 52.7385 26.4127 52.7385 23.916C52.7385 21.4084 54.0126 19.8466 56.0534 19.8466C58.1055 19.8466 59.3345 21.3754 59.3345 23.905C59.3345 26.4457 58.1055 27.9745 56.0422 27.9745Z" fill="#0E0E0E"/>
<path d="M70.3089 17.7239C68.6402 17.7239 67.197 18.5377 66.4528 19.9016H66.2724V17.9218H63.9384V33.8807H66.3626V28.0845H66.5543C67.197 29.3493 68.5838 30.0972 70.3315 30.0972C73.4322 30.0972 75.4053 27.7105 75.4053 23.905C75.4053 20.0995 73.4322 17.7239 70.3089 17.7239ZM69.6211 27.9745C67.5916 27.9745 66.3175 26.4127 66.3175 23.916C66.3175 21.4084 67.5916 19.8466 69.6324 19.8466C71.6845 19.8466 72.9135 21.3754 72.9135 23.905C72.9135 26.4457 71.6845 27.9745 69.6211 27.9745Z" fill="#0E0E0E"/>
<path d="M46.0101 29.8992H48.7914L42.7028 13.4495H39.8864L33.7977 29.8992H36.4856L38.0399 25.5332H44.4675L46.0101 29.8992ZM41.1602 16.4362H41.3589L43.8013 23.39H38.706L41.1602 16.4362Z" fill="#0E0E0E"/>
<path d="M35.4261 1.04194V8.97738H38.3633C40.7875 8.97738 42.1913 7.52007 42.1913 4.98491C42.1913 2.48824 40.7762 1.04194 38.3633 1.04194H35.4261ZM36.689 2.16379H38.2224C39.9081 2.16379 40.9059 3.20865 40.9059 5.00141C40.9059 6.82167 39.925 7.85553 38.2224 7.85553H36.689V2.16379Z" fill="#0E0E0E"/>
<path d="M46.4905 9.09286C48.2833 9.09286 49.3826 7.92152 49.3826 5.98028C49.3826 4.05004 48.2777 2.87319 46.4905 2.87319C44.6978 2.87319 43.5928 4.05004 43.5928 5.98028C43.5928 7.92152 44.6921 9.09286 46.4905 9.09286ZM46.4905 8.04251C45.4363 8.04251 44.8443 7.28911 44.8443 5.98028C44.8443 4.68245 45.4363 3.92355 46.4905 3.92355C47.5391 3.92355 48.1367 4.68245 48.1367 5.98028C48.1367 7.28361 47.5391 8.04251 46.4905 8.04251Z" fill="#0E0E0E"/>
<path d="M58.7444 2.98868H57.5324L56.4387 7.55857H56.3428L55.08 2.98868H53.9186L52.6558 7.55857H52.5656L51.4663 2.98868H50.2373L51.9286 8.97738H53.1745L54.4373 4.56697H54.5331L55.8016 8.97738H57.0588L58.7444 2.98868Z" fill="#0E0E0E"/>
<path d="M60.1403 8.97738H61.3524V5.47435C61.3524 4.53947 61.9218 3.95655 62.8182 3.95655C63.7146 3.95655 64.143 4.43499 64.143 5.39736V8.97738H65.3551V5.1004C65.3551 3.67609 64.5997 2.87319 63.2297 2.87319C62.3052 2.87319 61.6963 3.27464 61.3975 3.94005H61.3073V2.98868H60.1403V8.97738Z" fill="#0E0E0E"/>
<path d="M67.264 8.97738H68.4761V0.651489H67.264V8.97738Z" fill="#0E0E0E"/>
<path d="M73.0347 9.09286C74.8274 9.09286 75.9268 7.92152 75.9268 5.98028C75.9268 4.05004 74.8218 2.87319 73.0347 2.87319C71.2419 2.87319 70.1369 4.05004 70.1369 5.98028C70.1369 7.92152 71.2363 9.09286 73.0347 9.09286ZM73.0347 8.04251C71.9804 8.04251 71.3885 7.28911 71.3885 5.98028C71.3885 4.68245 71.9804 3.92355 73.0347 3.92355C74.0833 3.92355 74.6809 4.68245 74.6809 5.98028C74.6809 7.28361 74.0833 8.04251 73.0347 8.04251Z" fill="#0E0E0E"/>
<path d="M79.5382 8.081C78.8786 8.081 78.3994 7.76754 78.3994 7.22861C78.3994 6.70068 78.7828 6.42022 79.6284 6.36523L81.128 6.27174V6.77217C81.128 7.51458 80.4515 8.081 79.5382 8.081ZM79.2281 9.07637C80.0343 9.07637 80.7052 8.73541 81.0716 8.13599H81.1675V8.97738H82.3345V4.88593C82.3345 3.62109 81.4663 2.87319 79.9272 2.87319C78.5347 2.87319 77.5425 3.53311 77.4185 4.56147H78.5911C78.7264 4.13803 79.1943 3.89606 79.8708 3.89606C80.6996 3.89606 81.128 4.25351 81.128 4.88593V5.40286L79.4649 5.49634C78.0048 5.58433 77.1817 6.20575 77.1817 7.28361C77.1817 8.37796 78.0443 9.07637 79.2281 9.07637Z" fill="#0E0E0E"/>
<path d="M86.4477 9.07637C87.2933 9.07637 88.0093 8.68592 88.3757 8.03151H88.4716V8.97738H89.6329V0.651489H88.4208V3.94005H88.3306C87.998 3.28014 87.2877 2.88969 86.4477 2.88969C84.8973 2.88969 83.8995 4.08853 83.8995 5.98028C83.8995 7.87753 84.8861 9.07637 86.4477 9.07637ZM86.7916 3.95105C87.8063 3.95105 88.4434 4.73745 88.4434 5.98578C88.4434 7.23961 87.812 8.01501 86.7916 8.01501C85.7655 8.01501 85.151 7.25061 85.151 5.98028C85.151 4.72095 85.7712 3.95105 86.7916 3.95105Z" fill="#0E0E0E"/>
<path d="M97.4929 9.09286C99.2857 9.09286 100.385 7.92152 100.385 5.98028C100.385 4.05004 99.28 2.87319 97.4929 2.87319C95.7001 2.87319 94.5952 4.05004 94.5952 5.98028C94.5952 7.92152 95.6945 9.09286 97.4929 9.09286ZM97.4929 8.04251C96.4387 8.04251 95.8467 7.28911 95.8467 5.98028C95.8467 4.68245 96.4387 3.92355 97.4929 3.92355C98.5415 3.92355 99.1391 4.68245 99.1391 5.98028C99.1391 7.28361 98.5415 8.04251 97.4929 8.04251Z" fill="#0E0E0E"/>
<path d="M101.989 8.97738H103.202V5.47435C103.202 4.53947 103.771 3.95655 104.667 3.95655C105.564 3.95655 105.992 4.43499 105.992 5.39736V8.97738H107.204V5.1004C107.204 3.67609 106.449 2.87319 105.079 2.87319C104.154 2.87319 103.545 3.27464 103.247 3.94005H103.156V2.98868H101.989V8.97738Z" fill="#0E0E0E"/>
<path d="M112.787 1.49838V3.01617H111.811V4.01154H112.787V7.39359C112.787 8.54844 113.322 9.01038 114.67 9.01038C114.906 9.01038 115.132 8.98288 115.329 8.94988V7.96552C115.16 7.98201 115.053 7.99301 114.867 7.99301C114.264 7.99301 113.999 7.71805 113.999 7.09113V4.01154H115.329V3.01617H113.999V1.49838H112.787Z" fill="#0E0E0E"/>
<path d="M116.956 8.97738H118.168V5.47985C118.168 4.57247 118.721 3.96205 119.713 3.96205C120.57 3.96205 121.027 4.44598 121.027 5.40286V8.97738H122.239V5.1114C122.239 3.68709 121.432 2.87869 120.125 2.87869C119.2 2.87869 118.552 3.28014 118.253 3.95105H118.157V0.651489H116.956V8.97738Z" fill="#0E0E0E"/>
<path d="M126.611 3.87956C127.508 3.87956 128.094 4.48998 128.122 5.43035H125.021C125.089 4.49548 125.715 3.87956 126.611 3.87956ZM128.116 7.3606C127.891 7.82803 127.389 8.0865 126.656 8.0865C125.687 8.0865 125.061 7.42109 125.021 6.37073V6.30474H129.357V5.89229C129.357 4.01154 128.325 2.87319 126.617 2.87319C124.886 2.87319 123.787 4.08853 123.787 6.00228C123.787 7.91602 124.864 9.09286 126.622 9.09286C128.026 9.09286 129.007 8.43295 129.283 7.3606H128.116Z" fill="#0E0E0E"/>
<path d="M20.6446 16.3985C20.674 14.1712 21.9003 12.0637 23.8456 10.8971C22.6184 9.18739 20.5628 8.1034 18.4243 8.03814C16.1433 7.80459 13.932 9.36954 12.7697 9.36954C11.5848 9.36954 9.79523 8.06132 7.86812 8.1C5.35622 8.17916 3.0145 9.57225 1.79241 11.7144C-0.834611 16.1511 1.12491 22.6715 3.64137 26.2577C4.90041 28.0138 6.37186 29.9754 8.29723 29.9059C10.1813 29.8296 10.885 28.7339 13.1593 28.7339C15.4124 28.7339 16.0726 29.9059 18.037 29.8616C20.0587 29.8296 21.3325 28.0977 22.5474 26.325C23.452 25.0737 24.1481 23.6908 24.6099 22.2274C22.234 21.2472 20.6474 18.9149 20.6446 16.3985Z" fill="#0E0E0E"/>
<path d="M16.9341 5.67964C18.0364 4.38881 18.5795 2.72967 18.448 1.05457C16.7639 1.22711 15.2082 2.01225 14.091 3.25355C12.9985 4.46636 12.43 6.09631 12.5375 7.70739C14.2222 7.72431 15.8784 6.96045 16.9341 5.67964Z" fill="#0E0E0E"/>
</svg>
