<svg width="140" height="32" viewBox="0 0 140 32" fill="none" xmlns="http://www.w3.org/2000/svg">
<path d="M70.2679 17.5138C67.4281 17.5138 65.1135 19.5712 65.1135 22.4048C65.1135 25.2211 67.4281 27.2957 70.2679 27.2957C73.109 27.2957 75.4236 25.2211 75.4236 22.4048C75.4224 19.5712 73.1078 17.5138 70.2679 17.5138ZM70.2679 25.3706C68.7116 25.3706 67.3702 24.1482 67.3702 22.4059C67.3702 20.6453 68.7128 19.4412 70.2679 19.4412C71.8243 19.4412 73.1657 20.6453 73.1657 22.4059C73.1657 24.147 71.8243 25.3706 70.2679 25.3706ZM59.0221 17.5138C56.1823 17.5138 53.8677 19.5712 53.8677 22.4048C53.8677 25.2211 56.1823 27.2957 59.0221 27.2957C61.8632 27.2957 64.1778 25.2211 64.1778 22.4048C64.1778 19.5712 61.8632 17.5138 59.0221 17.5138ZM59.0221 25.3706C57.4658 25.3706 56.1244 24.1482 56.1244 22.4059C56.1244 20.6453 57.467 19.4412 59.0221 19.4412C60.5785 19.4412 61.9199 20.6453 61.9199 22.4059C61.9211 24.147 60.5785 25.3706 59.0221 25.3706ZM45.6465 19.0157V21.0903H50.8601C50.7043 22.2576 50.2962 23.1097 49.6732 23.702C48.9149 24.4242 47.7281 25.2211 45.6465 25.2211C42.4372 25.2211 39.9282 22.7567 39.9282 19.7C39.9282 16.6433 42.4372 14.1788 45.6465 14.1788C47.3779 14.1788 48.6421 14.8274 49.5754 15.6612L51.1124 14.1972C49.8084 13.0116 48.0782 12.1042 45.6465 12.1042C41.2503 12.1042 37.5544 15.5128 37.5544 19.7C37.5544 23.8871 41.2503 27.2957 45.6465 27.2957C48.019 27.2957 49.8096 26.554 51.209 25.1648C52.6482 23.794 53.0962 21.8666 53.0962 20.3106C53.0962 19.8299 53.0576 19.3849 52.9791 19.0146H45.6465V19.0157ZM100.352 20.6269C99.9243 19.5344 98.6203 17.5138 95.9555 17.5138C93.3101 17.5138 91.1114 19.4964 91.1114 22.4048C91.1114 25.1464 93.2908 27.2957 96.2079 27.2957C98.5611 27.2957 99.9231 25.9249 100.488 25.128L98.7374 24.0159C98.1542 24.8313 97.3561 25.3683 96.2079 25.3683C95.0608 25.3683 94.2434 24.8681 93.7182 23.886L100.585 21.1812L100.352 20.6269ZM93.3487 22.2576C93.2908 20.367 94.8858 19.4044 96.034 19.4044C96.9287 19.4044 97.687 19.8311 97.9405 20.4417L93.3487 22.2576ZM87.7669 27.0002H90.0223V12.624H87.7669V27.0002ZM84.0698 18.6075H83.9925C83.4866 18.0325 82.5135 17.5138 81.2892 17.5138C78.721 17.5138 76.3678 19.6632 76.3678 22.4243C76.3678 25.1659 78.721 27.2969 81.2892 27.2969C82.5147 27.2969 83.4866 26.7782 83.9925 26.186H84.0698V26.8898C84.0698 28.7608 83.0194 29.7613 81.3278 29.7613C79.9465 29.7613 79.0905 28.8172 78.7403 28.0202L76.7759 28.7988C77.3397 30.0948 78.8369 31.6887 81.3278 31.6887C83.9732 31.6887 86.2105 30.2064 86.2105 26.5931V17.8117H84.071V18.6075H84.0698ZM81.4835 25.3706C79.9272 25.3706 78.6244 24.1286 78.6244 22.4243C78.6244 20.7005 79.9272 19.4412 81.4835 19.4412C83.0194 19.4412 84.2256 20.7005 84.2256 22.4243C84.2256 24.1286 83.0194 25.3706 81.4835 25.3706ZM110.921 12.624H105.523V27.0002H107.775V21.5538H110.92C113.417 21.5538 115.873 19.8322 115.873 17.0895C115.873 14.3467 113.418 12.624 110.921 12.624ZM110.979 19.5528H107.775V14.625H110.979C112.664 14.625 113.62 15.9533 113.62 17.0895C113.62 18.2027 112.664 19.5528 110.979 19.5528ZM124.903 17.4885C123.272 17.4885 121.583 18.1728 120.884 19.6896L122.883 20.4843C123.311 19.6896 124.107 19.4297 124.942 19.4297C126.107 19.4297 127.291 20.0956 127.311 21.2789V21.4273C126.903 21.2053 126.028 20.873 124.961 20.873C122.806 20.873 120.611 22.0011 120.611 24.1091C120.611 26.033 122.378 27.2716 124.359 27.2716C125.873 27.2716 126.708 26.6241 127.232 25.8651H127.309V26.9749H129.485V21.4629C129.486 18.9122 127.485 17.4885 124.903 17.4885ZM124.63 25.3672C123.894 25.3672 122.864 25.0153 122.864 24.1459C122.864 23.0361 124.146 22.6106 125.253 22.6106C126.242 22.6106 126.709 22.8142 127.311 23.0913C127.136 24.4242 125.932 25.3672 124.63 25.3672ZM137.408 17.8025L134.826 24.0355H134.748L132.068 17.8025H129.641L133.66 26.5137L131.369 31.3598H133.718L139.914 17.8025H137.408ZM117.117 27.0002H119.368V12.624H117.117V27.0002Z" fill="#0E0E0E"/>
<path d="M45.253 4.27942C45.253 5.24312 44.9535 6.01017 44.3534 6.58287C43.6725 7.26367 42.7838 7.60407 41.6923 7.60407C40.6467 7.60407 39.7568 7.25907 39.0264 6.56907C38.2947 5.87792 37.9288 5.02232 37.9288 4.00112C37.9288 2.97877 38.2947 2.12317 39.0264 1.43317C39.7568 0.742021 40.6467 0.397022 41.6923 0.397022C42.2115 0.397022 42.7078 0.493622 43.1786 0.685672C43.6507 0.878872 44.0287 1.13532 44.3112 1.45617L43.6749 2.06337C43.1955 1.51712 42.5351 1.24457 41.6911 1.24457C40.928 1.24457 40.2688 1.49987 39.7122 2.01047C39.1556 2.52107 38.8779 3.18462 38.8779 3.99997C38.8779 4.81532 39.1556 5.47887 39.7122 5.98947C40.2688 6.50007 40.928 6.75537 41.6911 6.75537C42.5001 6.75537 43.175 6.49892 43.7147 5.98487C44.0649 5.65022 44.2677 5.18447 44.3221 4.58762H41.6911V3.75847H45.201C45.2373 3.93902 45.253 4.11267 45.253 4.27942Z" fill="#0E0E0E"/>
<path d="M50.8192 1.39759H47.5206V3.58489H50.4956V4.41404H47.5206V6.60134H50.8192V7.45004H46.5897V0.550037H50.8192V1.39759Z" fill="#0E0E0E"/>
<path d="M54.7444 7.45004H53.8135V1.39759H51.7898V0.550037H56.768V1.39759H54.7444V7.45004Z" fill="#0E0E0E"/>
<path d="M60.3696 7.45004V0.550037H61.3005V7.45004H60.3696Z" fill="#0E0E0E"/>
<path d="M65.4289 7.45004H64.498V1.39759H62.4743V0.550037H67.4525V1.39759H65.4289V7.45004Z" fill="#0E0E0E"/>
<path d="M76.876 6.55878C76.1637 7.25568 75.2786 7.60413 74.2197 7.60413C73.1608 7.60413 72.2758 7.25568 71.5646 6.55878C70.8523 5.86188 70.4973 5.00858 70.4973 4.00003C70.4973 2.99148 70.8523 2.13818 71.5646 1.44128C72.2758 0.744375 73.1608 0.394775 74.2197 0.394775C75.2726 0.394775 76.1564 0.745525 76.8712 1.44587C77.586 2.14623 77.9434 2.99723 77.9434 4.00003C77.9434 5.00858 77.5872 5.86188 76.876 6.55878ZM72.2517 5.98033C72.7877 6.49783 73.4434 6.75543 74.2197 6.75543C74.9961 6.75543 75.6529 6.49668 76.1878 5.98033C76.7239 5.46283 76.9931 4.80273 76.9931 4.00003C76.9931 3.19733 76.7239 2.53723 76.1878 2.01973C75.6529 1.50223 74.9961 1.24463 74.2197 1.24463C73.4434 1.24463 72.7877 1.50338 72.2517 2.01973C71.7168 2.53723 71.4475 3.19733 71.4475 4.00003C71.4475 4.80273 71.7168 5.46283 72.2517 5.98033Z" fill="#0E0E0E"/>
<path d="M79.2498 7.45004V0.550037H80.3824L83.9032 5.91709H83.943L83.9032 4.58769V0.550037H84.8341V7.45004H83.8621L80.1783 1.82194H80.1385L80.1783 3.15134V7.45004H79.2498Z" fill="#0E0E0E"/>
<path d="M45.253 4.27942C45.253 5.24312 44.9535 6.01017 44.3534 6.58287C43.6725 7.26367 42.7838 7.60407 41.6923 7.60407C40.6467 7.60407 39.7568 7.25907 39.0264 6.56907C38.2947 5.87792 37.9288 5.02232 37.9288 4.00112C37.9288 2.97877 38.2947 2.12317 39.0264 1.43317C39.7568 0.742021 40.6467 0.397022 41.6923 0.397022C42.2115 0.397022 42.7078 0.493622 43.1786 0.685672C43.6507 0.878872 44.0287 1.13532 44.3112 1.45617L43.6749 2.06337C43.1955 1.51712 42.5351 1.24457 41.6911 1.24457C40.928 1.24457 40.2688 1.49987 39.7122 2.01047C39.1556 2.52107 38.8779 3.18462 38.8779 3.99997C38.8779 4.81532 39.1556 5.47887 39.7122 5.98947C40.2688 6.50007 40.928 6.75537 41.6911 6.75537C42.5001 6.75537 43.175 6.49892 43.7147 5.98487C44.0649 5.65022 44.2677 5.18447 44.3221 4.58762H41.6911V3.75847H45.201C45.2373 3.93902 45.253 4.11267 45.253 4.27942Z" stroke="#0E0E0E" stroke-width="0.2" stroke-miterlimit="10"/>
<path d="M50.8192 1.39759H47.5206V3.58489H50.4956V4.41404H47.5206V6.60134H50.8192V7.45004H46.5897V0.550037H50.8192V1.39759Z" stroke="#0E0E0E" stroke-width="0.2" stroke-miterlimit="10"/>
<path d="M54.7444 7.45004H53.8135V1.39759H51.7898V0.550037H56.768V1.39759H54.7444V7.45004Z" stroke="#0E0E0E" stroke-width="0.2" stroke-miterlimit="10"/>
<path d="M60.3696 7.45004V0.550037H61.3005V7.45004H60.3696Z" stroke="#0E0E0E" stroke-width="0.2" stroke-miterlimit="10"/>
<path d="M65.4289 7.45004H64.498V1.39759H62.4743V0.550037H67.4525V1.39759H65.4289V7.45004Z" stroke="#0E0E0E" stroke-width="0.2" stroke-miterlimit="10"/>
<path d="M76.876 6.55878C76.1637 7.25568 75.2786 7.60413 74.2197 7.60413C73.1608 7.60413 72.2758 7.25568 71.5646 6.55878C70.8523 5.86188 70.4973 5.00858 70.4973 4.00003C70.4973 2.99148 70.8523 2.13818 71.5646 1.44128C72.2758 0.744375 73.1608 0.394775 74.2197 0.394775C75.2726 0.394775 76.1564 0.745525 76.8712 1.44587C77.586 2.14623 77.9434 2.99723 77.9434 4.00003C77.9434 5.00858 77.5872 5.86188 76.876 6.55878ZM72.2517 5.98033C72.7877 6.49783 73.4434 6.75543 74.2197 6.75543C74.9961 6.75543 75.6529 6.49668 76.1878 5.98033C76.7239 5.46283 76.9931 4.80273 76.9931 4.00003C76.9931 3.19733 76.7239 2.53723 76.1878 2.01973C75.6529 1.50223 74.9961 1.24463 74.2197 1.24463C73.4434 1.24463 72.7877 1.50338 72.2517 2.01973C71.7168 2.53723 71.4475 3.19733 71.4475 4.00003C71.4475 4.80273 71.7168 5.46283 72.2517 5.98033Z" stroke="#0E0E0E" stroke-width="0.2" stroke-miterlimit="10"/>
<path d="M79.2498 7.45004V0.550037H80.3824L83.9032 5.91709H83.943L83.9032 4.58769V0.550037H84.8341V7.45004H83.8621L80.1783 1.82194H80.1385L80.1783 3.15134V7.45004H79.2498Z" stroke="#0E0E0E" stroke-width="0.2" stroke-miterlimit="10"/>
<g filter="url(#filter0_ii_10266_2444)">
<path d="M0.593704 2.12619C0.267126 2.45669 0.0740962 2.96962 0.0740962 3.63385V27.3659C0.0740962 28.0312 0.267126 28.5431 0.593704 28.8736L0.67675 28.9508L14.5804 15.6566V15.4999V15.3432L0.67675 2.04785L0.593704 2.12619Z" fill="url(#paint0_linear_10266_2444)"/>
<path d="M19.2139 20.0891L14.5801 15.6563V15.4996V15.3429L19.215 10.9111L19.3194 10.968L24.8106 13.9511C26.3784 14.8032 26.3784 16.1971 24.8106 17.0502L19.3194 20.0333L19.2139 20.0891Z" fill="url(#paint1_linear_10266_2444)"/>
<g filter="url(#filter1_i_10266_2444)">
<path d="M19.3196 20.0322L14.5792 15.4995L0.593629 28.8732C1.10987 29.3969 1.96391 29.4613 2.92568 28.9397L19.3196 20.0322Z" fill="url(#paint2_linear_10266_2444)"/>
</g>
<path d="M19.3196 10.9671L2.92568 2.06058C1.96391 1.538 1.10987 1.60346 0.593629 2.12711L14.5803 15.5008L19.3196 10.9671Z" fill="url(#paint3_linear_10266_2444)"/>
</g>
<defs>
<filter id="filter0_ii_10266_2444" x="0.0740967" y="1.69995" width="25.9124" height="27.6" filterUnits="userSpaceOnUse" color-interpolation-filters="sRGB">
<feFlood flood-opacity="0" result="BackgroundImageFix"/>
<feBlend mode="normal" in="SourceGraphic" in2="BackgroundImageFix" result="shape"/>
<feColorMatrix in="SourceAlpha" type="matrix" values="0 0 0 0 0 0 0 0 0 0 0 0 0 0 0 0 0 0 127 0" result="hardAlpha"/>
<feOffset dy="-0.795"/>
<feComposite in2="hardAlpha" operator="arithmetic" k2="-1" k3="1"/>
<feColorMatrix type="matrix" values="0 0 0 0 0 0 0 0 0 0 0 0 0 0 0 0 0 0 0.12 0"/>
<feBlend mode="normal" in2="shape" result="effect1_innerShadow_10266_2444"/>
<feColorMatrix in="SourceAlpha" type="matrix" values="0 0 0 0 0 0 0 0 0 0 0 0 0 0 0 0 0 0 127 0" result="hardAlpha"/>
<feOffset dy="0.795"/>
<feComposite in2="hardAlpha" operator="arithmetic" k2="-1" k3="1"/>
<feColorMatrix type="matrix" values="0 0 0 0 1 0 0 0 0 1 0 0 0 0 1 0 0 0 0.25 0"/>
<feBlend mode="normal" in2="effect1_innerShadow_10266_2444" result="effect2_innerShadow_10266_2444"/>
</filter>
<filter id="filter1_i_10266_2444" x="0.593628" y="15.4995" width="18.7261" height="13.8004" filterUnits="userSpaceOnUse" color-interpolation-filters="sRGB">
<feFlood flood-opacity="0" result="BackgroundImageFix"/>
<feBlend mode="normal" in="SourceGraphic" in2="BackgroundImageFix" result="shape"/>
<feColorMatrix in="SourceAlpha" type="matrix" values="0 0 0 0 0 0 0 0 0 0 0 0 0 0 0 0 0 0 127 0" result="hardAlpha"/>
<feOffset dy="-0.795"/>
<feComposite in2="hardAlpha" operator="arithmetic" k2="-1" k3="1"/>
<feColorMatrix type="matrix" values="0 0 0 0 0 0 0 0 0 0 0 0 0 0 0 0 0 0 0.08 0"/>
<feBlend mode="normal" in2="shape" result="effect1_innerShadow_10266_2444"/>
</filter>
<linearGradient id="paint0_linear_10266_2444" x1="13.348" y1="3.38275" x2="-4.64227" y2="22.1976" gradientUnits="userSpaceOnUse">
<stop stop-color="#00A0FF"/>
<stop offset="0.0066" stop-color="#00A1FF"/>
<stop offset="0.2601" stop-color="#00BEFF"/>
<stop offset="0.5122" stop-color="#00D2FF"/>
<stop offset="0.7604" stop-color="#00DFFF"/>
<stop offset="1" stop-color="#00E3FF"/>
</linearGradient>
<linearGradient id="paint1_linear_10266_2444" x1="26.8514" y1="15.4996" x2="-0.302649" y2="15.4996" gradientUnits="userSpaceOnUse">
<stop stop-color="#FFE000"/>
<stop offset="0.4087" stop-color="#FFBD00"/>
<stop offset="0.7754" stop-color="#FFA500"/>
<stop offset="1" stop-color="#FF9C00"/>
</linearGradient>
<linearGradient id="paint2_linear_10266_2444" x1="16.7453" y1="17.961" x2="-7.65171" y2="43.4763" gradientUnits="userSpaceOnUse">
<stop stop-color="#FF3A44"/>
<stop offset="1" stop-color="#C31162"/>
</linearGradient>
<linearGradient id="paint3_linear_10266_2444" x1="-2.92869" y1="-5.77306" x2="7.96524" y2="5.62023" gradientUnits="userSpaceOnUse">
<stop stop-color="#32A071"/>
<stop offset="0.0685" stop-color="#2DA771"/>
<stop offset="0.4762" stop-color="#15CF74"/>
<stop offset="0.8009" stop-color="#06E775"/>
<stop offset="1" stop-color="#00F076"/>
</linearGradient>
</defs>
</svg>
